<?xml version="1.0" encoding="UTF-8"?>
<!DOCTYPE svg PUBLIC "-//W3C//DTD SVG 1.1//EN" "http://www.w3.org/Graphics/SVG/1.1/DTD/svg11.dtd">
<!-- Creator: CorelDRAW X7 -->
<svg xmlns="http://www.w3.org/2000/svg" xml:space="preserve" version="1.1" style="shape-rendering:geometricPrecision; text-rendering:geometricPrecision; image-rendering:optimizeQuality; fill-rule:evenodd; clip-rule:evenodd"
viewBox="0 0 29700 21000"
 xmlns:xlink="http://www.w3.org/1999/xlink">
 <defs>
  <style type="text/css">
   <![CDATA[
    .fil0 {fill:#060606}
    .fil1 {fill:#44C7F3}
    .fil2 {fill:#D8F6FC}
   ]]>
  </style>
 </defs>
 <g id="Layer_x0020_1">
  <metadata id="CorelCorpID_0Corel-Layer"/>
  <g id="_2796376237552">
   <path class="fil0" d="M9334 6590l0 35c0,1 3,5 4,5l2 0c4,0 5,-3 5,-7l0 -31c0,-4 -2,-6 -6,-6l-1 0c-2,0 -4,2 -4,4z"/>
   <path class="fil0" d="M9377 6641l0 1c0,3 3,5 5,5l2 0c4,0 12,-20 13,-25 2,-5 11,-24 11,-28l0 -1c0,-2 -3,-4 -6,-4l0 0c-6,0 -6,7 -8,11 -2,5 -4,10 -6,14 -1,4 -11,27 -11,27z"/>
   <path class="fil0" d="M9271 6594l0 2c0,2 10,23 11,27 1,4 9,24 13,24l1 0c3,0 6,-1 6,-4l0 -2c0,-1 -15,-36 -16,-38l0 -2c-3,-4 -3,-12 -9,-12 -3,0 -6,2 -6,5z"/>
   <path class="fil0" d="M9225 6634l0 3c0,3 25,29 28,29 3,0 6,-3 6,-6l0 -1c0,-3 -11,-13 -14,-15 -3,-3 -10,-13 -15,-13 -3,0 -3,2 -5,3z"/>
   <path class="fil0" d="M9420 6659l0 2c0,2 3,5 5,5l0 0c5,0 30,-25 30,-29l0 -1c0,-3 -3,-5 -6,-5 -5,0 -13,10 -16,13 -2,3 -13,12 -13,15z"/>
   <path class="fil0" d="M9183 6681l0 4c0,3 21,12 25,13 6,2 23,10 29,10l0 0c2,0 4,-3 4,-5l0 -2c0,-3 -9,-6 -12,-7 -4,-2 -9,-4 -13,-5 -4,-2 -25,-12 -27,-12l-2 0c-2,0 -4,3 -4,4z"/>
   <path class="fil0" d="M9438 6701l0 4c0,1 3,3 3,3 8,0 24,-8 30,-10 5,-2 9,-4 14,-6 4,-2 12,-4 12,-9 0,-3 -3,-6 -6,-6 -2,0 -24,10 -27,11 -4,2 -26,9 -26,13z"/>
   <path class="fil0" d="M9179 6745l1 4 1 2 2 0 0 1 35 0c2,0 5,-3 5,-6l0 -2c0,-2 -3,-4 -5,-4l-33 0c-3,0 -6,3 -6,5z"/>
   <path class="fil0" d="M9456 6744l0 3c0,4 3,5 8,5l30 0c2,0 6,-3 6,-5l0 -3c0,-2 -3,-4 -5,-4l-34 0c-2,0 -5,2 -5,4z"/>
   <path class="fil0" d="M9182 6808l0 1c0,2 3,5 4,5 4,0 12,-3 15,-4 2,-1 4,-2 7,-3 2,-1 5,-3 7,-3 4,-1 26,-10 26,-13l0 -3c0,-3 -2,-5 -5,-5l-1 0c-1,0 -25,10 -27,12 -4,2 -10,3 -14,5 -4,2 -12,2 -12,8z"/>
   <path class="fil0" d="M9438 6789l0 1c0,4 21,11 25,14 4,2 25,10 29,10 3,0 5,-4 4,-6 0,-5 -2,-4 -5,-6 -5,-2 -11,-4 -16,-6 -4,-2 -29,-13 -31,-13l-2 0c-2,0 -4,3 -4,6z"/>
   <path class="fil0" d="M9225 6855l0 3c2,0 2,3 5,3 4,0 29,-26 29,-28l0 -2c0,-2 -3,-5 -6,-5 -4,0 -13,10 -15,13 -3,3 -13,12 -13,16z"/>
   <path class="fil0" d="M9420 6832c0,4 25,29 28,29l1 0c2,0 6,-3 6,-5l0 -1c0,-4 -11,-12 -13,-15 -2,-2 -13,-14 -14,-14l-4 0c-3,0 -4,4 -4,6z"/>
   <path class="fil0" d="M9340 6903l0 3c0,2 1,4 3,4l22 0c0,10 -13,22 -23,22l-5 0c-2,0 -10,-3 -11,-4 -3,-2 -6,-5 -8,-8 -2,-2 -4,-7 -5,-10 -1,-6 -2,-11 -3,-14 11,-4 31,-12 34,-13 7,-3 14,-5 20,-8 7,-2 16,-4 20,-9 0,-43 -1,-37 21,-59 11,-11 25,-35 25,-56l0 -15c0,-10 -6,-26 -9,-33 -6,-10 -11,-16 -18,-24 -12,-12 -36,-26 -60,-26l-6 0c-22,0 -41,11 -54,20 -8,6 -12,13 -18,20 -4,4 -12,19 -12,26l-1 -1 -3 20 0 15c0,17 14,42 23,51 6,6 14,13 18,19 6,9 6,17 6,32 1,2 2,4 5,4 -1,1 -4,3 -4,4l0 1c0,3 2,6 5,6l4 0c1,-2 15,-6 18,-7 4,-2 16,-4 16,-10l0 -1c0,-3 -3,-5 -6,-5l-27 0 0 -9c0,-10 -5,-18 -9,-25 -5,-6 -12,-11 -18,-17 -9,-10 -20,-29 -20,-48l0 -6c0,-21 12,-42 23,-53 11,-11 31,-24 52,-24l14 0c1,0 1,0 2,1 15,0 35,13 43,21 7,6 8,10 14,17 1,2 4,8 5,10 0,2 3,11 4,12l2 16 0 4 -2 16 -1 0c0,6 -5,19 -8,22 -2,3 -3,5 -6,9 -2,2 -5,5 -7,8 -4,5 -10,7 -15,14 -4,6 -8,13 -8,23l0 22c-3,0 -32,12 -39,15 -3,1 -6,3 -9,4 -4,1 -6,2 -10,3 -5,3 -17,5 -17,11l0 2c0,0 0,0 0,0l0 0c4,25 13,48 43,48l5 0c7,0 19,-8 22,-12 5,-5 10,-14 10,-24l0 -4c0,-2 -1,-2 -2,-3l0 -1c3,-1 7,-2 7,-6 0,-3 -3,-6 -5,-6 -2,0 -18,6 -20,7 -3,2 -17,5 -17,9z"/>
   <g>
    <path class="fil1" d="M9351 6790l0 -1c2,-5 -2,-11 -7,-12l-1 -1c-3,0 -6,0 -8,1 -1,1 -2,1 -3,3 -1,1 -2,2 -2,4l-1 1c-1,5 3,11 8,12l2 1c3,1 6,-1 8,-2 1,-1 3,-4 4,-6z"/>
    <path class="fil1" d="M9357 6793c-2,4 -5,7 -8,9 -2,1 -7,3 -11,2l-3 -1c-8,-2 -14,-11 -12,-19l1 -2c2,-8 12,-14 20,-12l2 1c4,1 8,5 9,7 2,3 3,8 2,11l0 4zm-22 -45c-1,-1 0,-2 -2,-3 -1,0 -4,1 -5,1 -2,1 -3,0 -4,3 0,1 1,2 1,3 0,0 0,2 0,2 0,0 -6,4 -6,4 -1,0 -3,-3 -5,-3l0 0c-2,-1 -3,1 -4,2 -1,1 -3,2 -3,4 0,2 3,4 4,5 -1,2 -2,4 -3,5 -1,2 0,2 -2,2 -1,-1 -3,-1 -4,-1 -1,0 -2,0 -2,1l-2 7c0,1 1,2 2,3l5 1c0,1 0,7 0,7 -1,1 -6,1 -6,3l-1 1c0,1 1,3 1,4 1,2 1,4 3,4l0 0c2,1 4,-1 6,-1 0,1 3,6 4,6 -1,2 -4,3 -4,5 -1,2 1,3 2,4 1,1 2,3 4,3l0 0c2,1 4,-2 6,-4l6 4 0 0 -1 4c0,2 0,3 2,4l6 1c1,1 3,-1 3,-2l1 -4c2,0 6,-1 7,0 2,0 1,5 4,6l1 0c0,0 4,-1 4,-1 2,-1 3,-1 4,-3 0,-1 -2,-4 -2,-5 1,-1 3,-2 4,-2 0,-1 3,-2 3,-2 1,0 3,3 4,4l1 0c1,0 3,-2 4,-3 0,-1 2,-2 3,-4l0 0c0,-2 -4,-5 -4,-5 0,-2 3,-5 3,-7l5 1c1,1 3,0 3,-2l2 -5c0,-1 -1,-3 -2,-3l-5 -2 0 -7c1,0 3,-1 4,-1 1,-1 2,-1 2,-2 1,-2 -1,-9 -3,-9l-1 0c0,0 -4,1 -5,1 0,0 -1,-3 -2,-3 0,-1 -2,-3 -2,-4 0,0 4,-3 4,-4l0 0c0,-2 -5,-7 -6,-7 -3,-1 -5,4 -6,4 -1,0 -4,-3 -5,-3 -2,-1 -2,-1 -1,-3 0,-1 0,-2 1,-3 -1,-1 -1,-2 -3,-3l-5 -1c-1,0 -3,1 -3,2l-1 5c-3,-1 -7,0 -8,-1 0,0 -1,-2 -1,-3z"/>
   </g>
   <g>
    <path class="fil2" d="M9324 6739l-3 0c0,2 0,3 0,5 -1,2 -3,1 -4,1 -2,0 -2,1 -3,0 -2,0 -1,-2 -2,-3l0 2c0,1 0,1 1,2l2 0 0 0c2,0 6,0 6,-2l1 -3c-1,0 -1,0 -1,-1 0,0 2,-1 3,0l0 -1z"/>
    <path class="fil1" d="M9324 6714l1 -2c0,0 -1,-3 -1,-4 -1,-1 -1,-1 -2,-2 0,0 -1,-1 -1,-2l-2 0 -1 -1c-2,0 -5,1 -6,1 -1,1 -4,3 -4,4l0 2c-1,4 1,9 5,10l1 0c5,1 9,-2 10,-6z"/>
    <path class="fil1" d="M9329 6715c-1,4 -3,6 -5,8 -2,1 -7,3 -9,2l-3 0c-4,-1 -6,-4 -7,-6 -2,-2 -3,-7 -2,-9l0 -2c1,-4 4,-6 6,-8 2,-1 6,-2 9,-1l1 0c8,2 12,9 10,16zm-5 24l3 -1 2 4 1 0c1,0 6,-3 6,-3l0 -1c1,-2 -2,-3 -2,-5 0,0 2,-1 2,-2 1,0 1,-1 2,-2 2,1 3,2 4,2 2,1 4,-4 4,-5l1 0c0,-2 -3,-3 -4,-4l1 -6c2,0 5,0 5,-2 1,-2 1,-6 -1,-7l0 0c-1,0 -3,0 -3,0l-1 0c0,-1 -2,-5 -2,-5 0,-1 4,-2 4,-4 0,-1 -2,-6 -4,-6l0 0c-1,-1 -3,1 -4,2l-4 -4 -1 0c1,-1 2,-3 2,-4 1,-2 0,-2 -1,-3 -1,0 -3,-2 -3,-2l-2 0c0,1 0,0 -1,2 -1,0 -2,2 -2,2l0 1 -6 -2c0,-3 0,-6 -3,-6 -1,1 -3,0 -4,1 -2,0 -1,1 -2,3 0,0 1,1 0,2l0 0c-1,0 -5,2 -5,2 -1,-1 -2,-4 -3,-4l0 0c-2,-1 -3,0 -4,1 0,0 -2,1 -3,2l0 1c0,1 2,4 2,4 0,0 -3,4 -4,4 -1,0 -3,-1 -3,-1l-1 0c-1,-1 -4,3 -4,5l0 1c-1,1 2,2 4,3l-2 6c-1,0 -5,0 -5,2 0,1 0,3 0,4 0,1 0,2 1,3 2,0 3,-1 5,0l-1 0 2 5c-1,1 -4,2 -4,3l0 0c0,2 2,6 4,7l0 0c2,0 4,-2 4,-2 1,0 4,3 5,4 -1,1 -2,3 -2,4l0 0c-1,2 3,3 5,4 1,1 2,0 3,-1 0,0 1,-2 1,-3l6 2c0,0 0,1 0,2 1,1 0,3 2,3 1,1 1,0 3,0 1,0 3,1 4,-1 0,-2 0,-3 0,-5l3 0z"/>
   </g>
   <g>
    <path class="fil2" d="M9379 6747l-2 0c0,1 0,2 0,3 -1,1 -2,1 -3,1 -1,0 -1,0 -2,0 -1,0 -1,-2 -1,-2l-1 1c1,1 1,1 2,1l1 0 0 0c1,1 4,0 4,-1l0 -2c0,0 0,0 0,0 0,-1 1,-1 2,-1l0 0z"/>
    <path class="fil1" d="M9379 6730l1 -2c0,0 -1,-2 -1,-3 -1,0 -1,0 -1,-1 0,0 -1,0 -1,-1l-2 -1 0 0c-2,0 -3,0 -4,1 -1,0 -3,2 -3,3l0 1c-1,3 1,6 4,7l0 0c3,1 7,-1 7,-4z"/>
    <path class="fil1" d="M9382 6731c0,2 -2,4 -3,5 -1,1 -5,2 -6,1l-2 0c-3,-1 -4,-3 -5,-4 -1,-1 -2,-4 -2,-6l1 -2c0,-2 2,-4 4,-5 1,-1 4,-2 6,-1l1 0c5,1 8,6 6,12zm-3 16l2 -1 1 3 1 0c1,0 4,-2 4,-3l0 0c1,-1 -1,-2 -1,-3 0,0 1,-1 1,-2 1,0 1,-1 2,-1 1,0 1,1 2,1 1,1 3,-2 3,-3l0 0c1,-2 -1,-3 -2,-3l1 -4c1,0 3,0 3,-1 1,-2 1,-5 -1,-5l0 0c-1,0 -2,0 -2,0l-1 0c0,-1 -1,-4 -1,-4 1,-1 3,-1 3,-2 0,-1 -1,-4 -2,-5l-1 0c0,0 -2,1 -3,2l-2 -3 -1 0c1,-1 1,-2 2,-3 0,-1 -1,-1 -1,-1 -1,-1 -2,-2 -3,-2l0 0c-1,1 -1,0 -2,1 0,0 0,1 -1,2l0 0 -4 -1c0,-2 0,-4 -2,-4 -1,0 -2,0 -3,0 -1,1 -1,1 -1,2 0,1 0,1 0,2l0 0c-1,0 -3,1 -4,1 0,0 -1,-2 -2,-2l0 0c-1,-1 -1,0 -2,0 0,0 -2,1 -2,2l0 0c0,1 1,3 1,3 0,0 -2,3 -2,3 -1,0 -2,-1 -3,-1l0 0c-1,0 -3,2 -3,3l0 1c-1,1 2,2 2,2l-1 4c-1,0 -3,0 -3,2 0,0 0,2 0,2 0,1 0,2 1,2 1,1 2,0 3,0l0 0 1 4c-1,1 -3,2 -3,2l0 0c0,1 2,5 2,5l1 0c1,0 2,-2 3,-2 0,1 2,3 3,3 -1,1 -2,3 -2,3l0 0c0,1 2,2 4,3 1,0 1,0 2,-1 0,0 1,-2 1,-2l4 1c0,0 0,1 0,2 0,0 0,2 1,2 1,0 1,0 2,0 1,0 2,0 3,-1 0,-1 0,-2 0,-3l2 0z"/>
   </g>
  </g>
 </g>
</svg>
